<svg enable-background="new 0 0 58 58" height="512" viewBox="0 0 58 58" width="512" xmlns="http://www.w3.org/2000/svg"><path d="m12 5v16 18 10h32v-21-19-4z" fill="#ebba16"/><path d="m12 55.385c0 1.444 1.171 2.615 2.615 2.615h26.771c1.443 0 2.614-1.171 2.614-2.615v-7.385h-32z" fill="#e7eced"/><path d="m41.385 0h-26.77c-1.444 0-2.615 1.171-2.615 2.615v3.385h32v-3.385c0-1.444-1.171-2.615-2.615-2.615z" fill="#e7eced"/><path d="m33 4h-10c-.552 0-1-.447-1-1s.448-1 1-1h10c.552 0 1 .447 1 1s-.448 1-1 1z" fill="#afb6bb"/><path d="m40 4h-1c-.552 0-1-.447-1-1s.448-1 1-1h1c.552 0 1 .447 1 1s-.448 1-1 1z" fill="#afb6bb"/><path d="m29.241 55h-2.483c-.971 0-1.758-.787-1.758-1.759v-.483c0-.971.787-1.758 1.759-1.758h2.483c.971 0 1.758.787 1.758 1.759v.483c0 .971-.787 1.758-1.759 1.758z" fill="#afb6bb"/><path d="m32 11.996v14.007c0 1.103.894 1.997 1.996 1.997h3.004v5l4-5h15.004c1.102 0 1.996-.894 1.996-1.996v-14.008c0-1.102-.894-1.996-1.996-1.996h-22.008c-1.102 0-1.996.894-1.996 1.996z" fill="#dd352e"/><path d="m50 17h-3v-3h-4v3h-3v4h3v3h4v-3h3z" fill="#fff"/><path d="m26 22.996v14.007c0 1.103-.894 1.997-1.996 1.997h-3.004v5l-4-5h-15.004c-1.102 0-1.996-.894-1.996-1.996v-14.007c0-1.103.894-1.997 1.996-1.997h22.007c1.103 0 1.997.894 1.997 1.996z" fill="#366db6"/><g fill="#fff"><path d="m16 27h-12c-.552 0-1-.447-1-1s.448-1 1-1h12c.552 0 1 .447 1 1s-.448 1-1 1z"/><path d="m22 27h-2c-.552 0-1-.447-1-1s.448-1 1-1h2c.552 0 1 .447 1 1s-.448 1-1 1z"/><path d="m16 35h-12c-.552 0-1-.447-1-1s.448-1 1-1h12c.552 0 1 .447 1 1s-.448 1-1 1z"/><path d="m22 35h-2c-.552 0-1-.447-1-1s.448-1 1-1h2c.552 0 1 .447 1 1s-.448 1-1 1z"/><path d="m22 31h-12c-.552 0-1-.447-1-1s.448-1 1-1h12c.552 0 1 .447 1 1s-.448 1-1 1z"/><path d="m6 31h-2c-.552 0-1-.447-1-1s.448-1 1-1h2c.552 0 1 .447 1 1s-.448 1-1 1z"/></g></svg>