<svg height="512pt" viewBox="-50 0 512 512" width="512pt" xmlns="http://www.w3.org/2000/svg"><path d="m358.058594 132.976562h-39.492188v-19.746093c0-10.90625 8.839844-19.746094 19.746094-19.746094s19.746094 8.839844 19.746094 19.746094zm0 0" fill="#d9efec"/><path d="m179.886719 432.835938v-98.074219c0-10.972657 3.464843-21.660157 9.902343-30.542969l25.851563-35.675781c6.4375-8.882813 9.902344-19.570313 9.902344-30.539063v-133.335937h-147.925781v338.3125h92.121093c5.605469.003906 10.148438-4.542969 10.148438-10.144531zm0 0" fill="#fecaa8"/><path d="m200.886719 56.378906c-13.613281 0-24.652344 11.039063-24.652344 24.65625v-26.222656c0-13.613281-11.039063-24.652344-24.65625-24.652344-13.613281 0-24.652344 11.039063-24.652344 24.652344v-30.160156c0-13.613282-11.039062-24.652344-24.65625-24.652344-13.617187 0-24.652343 11.039062-24.652343 24.652344v29.335937c0-13.613281-11.039063-24.652343-24.65625-24.652343-13.613282 0-24.652344 11.039062-24.652344 24.652343v182.628907h49.308594v-38.46875h36.292968c40.40625 0 79.667969 13.40625 111.632813 38.117187v-155.230469c0-13.617187-11.039063-24.65625-24.65625-24.65625zm0 0" fill="#fecaa8"/><path d="m52.046875 189.132812v-47.9375c0-14.375-11.648437-26.023437-26.023437-26.023437-14.371094 0-26.023438 11.648437-26.023438 26.023437v96.808594c0 10.96875 3.464844 21.65625 9.902344 30.539063l25.851562 35.675781c6.4375 8.882812 9.902344 19.570312 9.902344 30.542969v98.074219c0 5.605468 4.542969 10.148437 10.148438 10.148437h48.292968v-201.804687c0-28.742188-23.304687-52.046876-52.050781-52.046876zm0 0" fill="#ffdfc7"/><path d="m77.617188 152.765625c-4.207032 0-7.613282-3.410156-7.613282-7.613281v-91.164063c0-4.203125 3.40625-7.609375 7.613282-7.609375 4.203124 0 7.609374 3.40625 7.609374 7.609375v91.164063c0 4.203125-3.40625 7.613281-7.609374 7.613281zm0 0" fill="#ffb38c"/><path d="m126.925781 152.765625c-4.203125 0-7.613281-3.410156-7.613281-7.613281v-91.164063c0-4.203125 3.410156-7.609375 7.613281-7.609375s7.609375 3.40625 7.609375 7.609375v91.164063c0 4.203125-3.40625 7.613281-7.609375 7.613281zm0 0" fill="#ffb38c"/><path d="m176.234375 178.332031c-4.203125 0-7.613281-3.40625-7.613281-7.609375v-91.164062c0-4.207032 3.410156-7.613282 7.613281-7.613282s7.613281 3.410157 7.613281 7.613282v91.164062c-.003906 4.203125-3.410156 7.609375-7.613281 7.609375zm0 0" fill="#ffb38c"/><path d="m205.007812 512h-53.027343c-25.816407 0-46.820313-21.003906-46.820313-46.820312v-80.410157c0-4.203125 3.40625-7.613281 7.609375-7.613281 4.207031 0 7.613281 3.410156 7.613281 7.613281v80.410157c0 17.421874 14.171876 31.597656 31.59375 31.597656h53.03125c67.796876 0 122.953126-55.15625 122.953126-122.957032v-116.890624c0-4.203126 3.410156-7.609376 7.613281-7.609376s7.609375 3.40625 7.609375 7.609376v116.890624c.003906 76.195313-61.984375 138.179688-138.175782 138.179688zm0 0" fill="#f55"/><path d="m112.769531 466.035156c-7.4375 0-13.46875-6.027344-13.46875-13.46875v-35.152344c0-7.441406 6.03125-13.46875 13.46875-13.46875 7.441407 0 13.46875 6.027344 13.46875 13.46875v35.152344c0 7.441406-6.027343 13.46875-13.46875 13.46875zm0 0" fill="#d9efec"/><path d="m99.300781 428.140625h26.9375v19.632813h-26.9375zm0 0" fill="#38aaff"/><path d="m391.992188 335.859375h-112.835938c-10.699219 0-19.371094-8.671875-19.371094-19.371094v-177.894531c0-10.699219 8.671875-19.371094 19.371094-19.371094h112.835938c10.699218 0 19.371093 8.671875 19.371093 19.371094v177.894531c0 10.699219-8.671875 19.371094-19.371093 19.371094zm0 0" fill="#f55"/><path d="m411.363281 138.589844v177.894531c0 10.703125-8.675781 19.378906-19.367187 19.378906h-33.804688c10.695313 0 19.367188-8.675781 19.367188-19.378906v-177.894531c0-10.695313-8.671875-19.367188-19.367188-19.367188h33.804688c10.695312 0 19.367187 8.671875 19.367187 19.367188zm0 0" fill="#f72b2b"/><path d="m259.785156 171.097656h151.578125v123.269532h-151.578125zm0 0" fill="#d9efec"/><path d="m377.558594 171.097656h33.804687v123.269532h-33.804687zm0 0" fill="#c1dbd6"/><path d="m312.273438 203.207031h-2.890626v-2.890625c0-4.203125-3.410156-7.609375-7.613281-7.609375s-7.609375 3.40625-7.609375 7.609375v2.890625h-2.890625c-4.203125 0-7.609375 3.40625-7.609375 7.609375s3.40625 7.613282 7.609375 7.613282h2.890625v2.886718c0 4.203125 3.40625 7.613282 7.609375 7.613282 4.207031 0 7.613281-3.410157 7.613281-7.613282v-2.886718h2.886719c4.207031 0 7.613281-3.410157 7.613281-7.613282s-3.40625-7.609375-7.609374-7.609375zm0 0" fill="#f72b2b"/><g fill="#38aaff"><path d="m355.359375 207.929688h-17.046875c-4.203125 0-7.609375-3.410157-7.609375-7.613282s3.40625-7.609375 7.609375-7.609375h17.046875c4.203125 0 7.609375 3.40625 7.609375 7.609375s-3.40625 7.613282-7.609375 7.613282zm0 0"/><path d="m380.316406 228.015625h-42.003906c-4.203125 0-7.609375-3.40625-7.609375-7.609375s3.40625-7.609375 7.609375-7.609375h42.003906c4.207032 0 7.613282 3.40625 7.613282 7.609375s-3.410157 7.609375-7.613282 7.609375zm0 0"/><path d="m383.96875 255.003906h-92.699219c-4.203125 0-7.609375-3.40625-7.609375-7.609375 0-4.207031 3.40625-7.613281 7.609375-7.613281h92.699219c4.207031 0 7.613281 3.410156 7.613281 7.613281s-3.40625 7.609375-7.613281 7.609375zm0 0"/><path d="m383.96875 275.753906h-92.699219c-4.203125 0-7.609375-3.40625-7.609375-7.609375s3.40625-7.613281 7.609375-7.613281h92.699219c4.207031 0 7.613281 3.410156 7.613281 7.613281s-3.40625 7.609375-7.613281 7.609375zm0 0"/></g><path d="m137.28125 390.808594h-49.515625c-5.605469 0-10.152344-4.542969-10.152344-10.148438v-15.097656c0-5.605469 4.546875-10.148438 10.152344-10.148438h49.515625c5.605469 0 10.152344 4.542969 10.152344 10.148438v15.097656c0 5.605469-4.546875 10.148438-10.152344 10.148438zm0 0" fill="#d9efec"/></svg>