<svg viewBox="0 1 511 511.99925" xmlns="http://www.w3.org/2000/svg"><path d="m448.007812 22.066406 42.425782 42.425782c29.273437 29.273437 29.273437 76.792968 0 106.066406l-85.441406 85.441406-74.460938 32.03125-74.667969 74.671875.636719 41.789063-85.554688 85.550781c-29.273437 29.273437-76.789062 29.273437-106.0625 0l-42.425781-42.425781c-29.277343-29.273438-29.277343-76.792969 0-106.066407l85.550781-85.550781 40.941407 1.484375 114.125-114.125-6.574219-35.851563 85.4375-85.441406c29.277344-29.273437 76.792969-29.273437 106.070312 0zm0 0" fill="#f6a96c"/><path d="m469.21875 43.28125 21.214844 21.210938c29.273437 29.273437 29.273437 76.792968 0 106.066406l-85.441406 85.441406-74.460938 32.03125-74.667969 74.671875.636719 41.789063-85.554688 85.550781c-29.273437 29.273437-76.789062 29.273437-106.0625 0l-21.214843-21.210938zm0 0" fill="#ea9b58"/><path d="m170.96875 21.160156 85.53125 86.347656 6.574219 35.847657-114.125 114.128906c-21.214844-.425781-40.09375-1.058594-40.941407-1.484375l-85.53125-86.347656c-29.273437-29.273438-29.0625-77.003906 0-106.066406l42.425782-42.425782c28.214844-28.214844 77.851562-28.214844 106.066406 0zm0 0" fill="#ffbd86"/><path d="m404.992188 256 85.652343 85.652344c29.007813 29.007812 28.796875 77.269531 0 106.066406l-42.425781 42.425781c-29.007812 29.007813-77.058594 29.007813-106.066406 0l-85.652344-85.652343-.636719-41.789063 74.671875-74.671875zm0 0" fill="#ffbd86"/><path d="m43.6875 42.375 159.78125 160.589844-54.519531 54.519531c-21.214844-.425781-40.09375-1.058594-40.941407-1.484375l-85.53125-86.347656c-29.273437-29.273438-29.0625-77.003906 0-106.066406zm0 0" fill="#f6a96c"/><path d="m255.863281 362.703125 53.667969-53.671875 159.902344 159.902344-21.214844 21.210937c-29.007812 29.007813-77.058594 29.007813-106.066406 0l-85.652344-85.652343zm0 0" fill="#f6a96c"/><path d="m108.007812 256 148.492188 148.492188 148.492188-148.492188-148.492188-148.492188zm0 0" fill="#fed2a4"/><path d="m256.5 404.496094-148.492188-148.492188 74.246094-74.246094 148.488282 148.492188zm0 0" fill="#ffbd86"/><path d="m127.945312 318.371094 22.488282 22.484375-21.210938 21.210937-22.488281-22.484375zm0 0" fill="#ffbd86"/><path d="m170.382812 403.214844-19.953124-19.933594 21.210937-21.210938 19.953125 19.933594zm0 0" fill="#f6a96c"/><path d="m84.613281 361.703125 22.484375 22.484375-21.210937 21.210938-22.484375-22.484376zm0 0" fill="#ffbd86"/><path d="m128.308594 405.398438 19.9375 19.9375-21.210938 21.210937-19.9375-19.9375zm0 0" fill="#f6a96c"/><path d="m383.304688 63.007812 22.484374 22.484376-21.210937 21.210937-22.484375-22.484375zm0 0" fill="#ffbd86"/><path d="m427 106.703125 19.9375 19.9375-21.210938 21.210937-19.9375-19.9375zm0 0" fill="#f6a96c"/><path d="m340.082031 106.230469 22.484375 22.484375-21.210937 21.210937-22.484375-22.484375zm0 0" fill="#ffbd86"/><path d="m382.507812 191.09375-19.9375-19.953125 21.210938-21.210937 19.933594 19.953124zm0 0" fill="#f6a96c"/><path d="m384.628906 318.792969 21.210938 21.210937-22.058594 22.058594-21.210938-21.210938zm0 0" fill="#fed2a4"/><path d="m342.191406 403.640625-21.210937-21.210937 20.378906-20.359376 21.210937 21.210938zm0 0" fill="#ffbd86"/><path d="m427.851562 362.015625 21.210938 21.210937-22.058594 22.058594-21.210937-21.210937zm0 0" fill="#fed2a4"/><path d="m384.578125 405.285156 21.210937 21.210938-20.359374 20.363281-21.210938-21.210937zm0 0" fill="#ffbd86"/><path d="m129.390625 62.742188 21.210937 21.210937-22.0625 22.058594-21.210937-21.210938zm0 0" fill="#fed2a4"/><path d="m86.117188 106.011719 21.210937 21.210937-20.359375 20.363282-21.210938-21.210938zm0 0" fill="#ffbd86"/><path d="m172.492188 106.65625 21.210937 21.210938-22.0625 22.0625-21.210937-21.210938zm0 0" fill="#fed2a4"/><path d="m130.070312 191.519531-21.210937-21.210937 20.359375-20.378906 21.210938 21.210937zm0 0" fill="#ffbd86"/></svg>