<svg height="60" viewBox="0 0 60 60" width="60" xmlns="http://www.w3.org/2000/svg"><g id="Page-1" fill="none" fill-rule="evenodd"><g id="088---Time-Marker" fill-rule="nonzero"><path id="Shape" d="m22.29 38.73-12.17-5.26.64-1.81c.1500511-.4174466.5571758-.6861489 1-.66h5.56c.5475185 1.1367403 1.1584816 2.2418156 1.83 3.31.1216142.2139963.2551581.4209893.4.62.8403585 1.3177202 1.7551769 2.5864464 2.74 3.8z" fill="#ffdc00"/><path id="Shape" d="m25.87 42.56-9.18 4-9.69-4.24 3.16-8.85 12.17 5.26c1.1069412 1.3423051 2.2888239 2.6210086 3.54 3.83z" fill="#3f51b5"/><path id="Shape" d="m51.52 59h-11.8l-20.06-8.66-18.22 7.87c-.0514077-.1797296-.0514077-.3702704 0-.55l1.93-5.42 7.36-3.18-5.4-2.32 1.67-4.42 9.73 4.2 9.18-4c1.2460861 1.2199386 2.5832876 2.3431879 4 3.36l-4.34 1.87z" fill="#ffdc00"/><path id="Shape" d="m57.58 59h-6.06l-26-11.21 4.34-1.87.14.08.45-.32 9.89-4.26 2.66 1.14 4 1.73 4.42 1.91 3.58 1.53 3.54 9.93c.1120573.3097468.064391.6548103-.1274428.9225783s-.5032275.4238924-.8325572.4174217z" fill="#ff9801"/><path id="Shape" d="m55 47.73-3.58-1.53-4.42-1.91-4-1.73-2.65-1.14-9.89 4.26c3.3325433-2.5192371 6.2801811-5.5106684 8.75-8.88l7.68-3.32 2.6-1.12 1.57 4.42-2.6 1.12-2.23 1 3 1.31 3.55 1.53z" fill="#ffdc00"/><path id="Shape" d="m49.49 32.36-10.28 4.44c.43-.59.87-1.22 1.29-1.87.1448419-.1990107.2783858-.4060037.4-.62.6715184-1.0681844 1.2824815-2.1732597 1.83-3.31h5.57c.4210301.0001791.7968498.2640526.94.66z" fill="#60a917"/><path id="Shape" d="m52.82 41.7-6.59-2.84 4.83-2.08z" fill="#f57c00"/><path id="Shape" d="m52.82 41.7-3.55-1.53-.81-2.27 2.6-1.12z" fill="#f57c00"/><path id="Shape" d="m49.49 32.36-2.6 1.12-.4-1.12-.25-.7c-.1431502-.3959474-.5189699-.6598209-.94-.66h3c.4210301.0001791.7968498.2640526.94.66z" fill="#549414"/><path id="Shape" d="m51.06 36.78-2.6 1.12-.4-1.12-1.17-3.3 2.6-1.12z" fill="#fec108"/><path id="Shape" d="m54.97 47.73-3.55-1.53-1.6-4.5-.55-1.53 3.55 1.53z" fill="#fec108"/><path id="Shape" d="m57.58 59h-3c.3258099-.0001386.6311253-.1589911.8182321-.4257178s.2325433-.6078823.1217679-.9142822l-3.52-9.93-.55-1.53 3.55 1.53 3.54 9.93c.1120573.3097468.064391.6548103-.1274428.9225783s-.5032275.4238924-.8325572.4174217z" fill="#f57c00"/><path id="Shape" d="m39.72 59h-37.3c-.47969281.0106736-.89935831-.3208621-1-.79l18.22-7.87z" fill="#60a917"/><path id="Shape" d="m10.78 49.06-7.36 3.18 1.96-5.5z" fill="#3f51b5"/><path id="Shape" d="m46 17.15c-.0153341 4.8061245-1.1340809 9.5445479-3.27 13.85-.5475185 1.1367403-1.1584816 2.2418156-1.83 3.31-.1216142.2139963-.2551581.4209893-.4.62-.42.65-.86 1.28-1.29 1.87-2.4698189 3.3693316-5.4174567 6.3607629-8.75 8.88l-.46.32-.11-.08c-1.4167124-1.0168121-2.7539139-2.1400614-4-3.36-1.264866-1.2078749-2.4601232-2.4865999-3.58-3.83-1.001921-1.2122566-1.9334522-2.4810088-2.79-3.8-.1448419-.1990107-.2783858-.4060037-.4-.62-.6783368-1.0677161-1.2959821-2.1728004-1.85-3.31-2.1359191-4.3054521-3.2546659-9.0438755-3.27-13.85 0-8.836556 7.163444-16 16-16s16 7.163444 16 16z" fill="#ef314c"/><path id="Shape" d="m44.58 10.52c-2.5565216-5.77161198-8.2675573-9.50062847-14.58-9.52-.5010337.00119028-1.0016819.02789151-1.5.08 8.2411714.84174665 14.5069478 7.7859554 14.5 16.07-.0153341 4.8061245-1.1340809 9.5445479-3.27 13.85-.5475185 1.1367403-1.1584816 2.2418156-1.83 3.31-.1216142.2139963-.2551581.4209893-.4.62-.42.65-.86 1.28-1.29 1.87-2.215015 3.0080579-4.8060844 5.720111-7.71 8.07.69.55 1.18.91 1.39 1.05l.11.08.45-.32c3.3325433-2.5192371 6.2801811-5.5106684 8.75-8.88.43-.59.87-1.22 1.29-1.87.1448419-.1990107.2783858-.4060037.4-.62.6749275-1.0679506 1.2892316-2.1730304 1.84-3.31 2.1359191-4.3054521 3.2546659-9.0438755 3.27-13.85.005748-2.2860666-.4784561-4.5468224-1.42-6.63z" fill="#bb193b"/><circle id="Oval" cx="30" cy="17" fill="#f5f5f5" r="11"/><g fill="#000"><path id="Shape" d="m55.92 47.39c-.0123446-.0416668-.0291065-.0818952-.05-.12l-5.69-15.94c-.282953-.7958378-1.03536-1.3281257-1.88-1.33h-4c1.776903-4.0511832 2.6961803-8.4262624 2.7-12.85 0-9.38884075-7.6111593-17-17-17s-17 7.61115925-17 17c.0141489 4.4247214.9400759 8.7990458 2.72 12.85h-4c-.8483087-.0023587-1.6058188.5307039-1.89 1.33l-7.31 20.45c-.00394399.0399028-.00394399.0800972 0 .12l-1.98 5.42c-.09382082.279808-.12455568.5769117-.09.87v.09c-.00488174.0498808-.00488174.1001192 0 .15.20540964.9342904 1.04365601 1.5923138 2 1.57h55.13c.6516197-.0002772 1.2622506-.3179822 1.6364641-.8514356.3742136-.5334534.4650867-1.2157646.2435359-1.8285644zm-30.77 1.32 21.53 9.29h-6.76l-19.86-8.58c-.2550505-.1113131-.5449495-.1113131-.8 0l-16.26 7.04 1.21-3.46 7-3c.3687533-.1570883.6080816-.5191812.6080816-.92s-.2393283-.7629117-.6080816-.92l-4.54-2 .91-2.53 8.74 3.78c.1274391.0504989.2629413.0775993.4.08.1371549-.0014947.2728206-.0286278.4-.08l8.56-3.7c.87.81 1.64 1.45 2.26 1.94l-2.75 1.19c-.3687533.1570883-.6080816.5191812-.6080816.92s.2393283.7629117.6080816.92zm-19.15-.63 2.28 1-3.14 1.33zm28.88 9.92h-30.42l15.2-6.57zm-24.17-23.19 11 4.75c.82 1 1.64 1.88 2.42 2.67l-7.41 3.2-8.5-3.66zm29.14 2.8 9.06-3.91.9 2.53-4 1.71c-.3687533.1570883-.6080816.5191812-.6080816.92s.2393283.7629117.6080816.92l6.19 2.67 1.24 3.45-12.49-5.4c-.2521726-.1084252-.5378274-.1084252-.79 0l-4.08 1.75c1.4330596-1.4493074 2.7598281-2.9999891 3.97-4.64zm11.26 2.26-2.35-1 1.72-.74zm-3.3-7.87-5.88 2.54c.51-.84 1-1.69 1.41-2.54zm-31.48-21.07c2.9127586-6.44831223 9.9355629-9.98426905 16.8503563-8.48409412 6.9147935 1.50017493 11.8409234 7.62847112 11.8196437 14.70409412 0 11-6.46 21.24-15 27.62-1.2027126-.9088857-2.3513336-1.8872171-3.44-2.93-6.94-6.61-11.56-15.18-11.56-24.69-.0064071-2.1445704.4471212-4.2655824 1.33-6.22zm.34 21.07c.5911854 1.2017764 1.2592376 2.3641873 2 3.48.19.29.38.56.57.84l-7.85-3.4.33-.92zm35.06 26-23.65-10.21 1.85-.8h.07c.1994427.0004453.3944627-.0587572.56-.17l.39-.28 9.4-4 13.84 6 3.39 9.46z"/><path id="Shape" d="m21.51 25.49c4.6781065 4.6394445 12.2218935 4.6394445 16.9 0 4.6394445-4.6781065 4.6394445-12.2218935 0-16.9-4.6781065-4.63944446-12.2218935-4.63944446-16.9 0-4.6394445 4.6781065-4.6394445 12.2218935 0 16.9zm-.51-9.49h-.95c.1988716-1.951724.967435-3.8018404 2.21-5.32l.67.66c.3900375.3877236 1.0199625.3877236 1.41 0 .3877236-.3900375.3877236-1.0199625 0-1.41l-.66-.67c1.5181596-1.24256504 3.368276-2.01112845 5.32-2.21v.95c0 .55228475.4477153 1 1 1s1-.44771525 1-1v-1c1.951724.19887155 3.8018404.96743496 5.32 2.21l-.66.67c-.3877236.3900375-.3877236 1.0199625 0 1.41.3900375.3877236 1.0199625.3877236 1.41 0l.67-.66c1.2696373 1.5260047 2.0563678 3.39536 2.26 5.37h-1c-.5522847 0-1 .4477153-1 1s.4477153 1 1 1h1c-.1988716 1.951724-.967435 3.8018404-2.21 5.32l-.67-.66c-.2443899-.2853762-.6281184-.4096819-.993419-.3218101-.3653005.0878718-.6505193.3730906-.7383911.7383911-.0878718.3653006.0364339.7490291.3218101.993419l.66.67c-1.5260047 1.2696373-3.39536 2.0563678-5.37 2.26v-1c0-.5522847-.4477153-1-1-1s-1 .4477153-1 1v1c-1.951724-.1988716-3.8018404-.967435-5.32-2.21l.66-.67c.3397768-.3967603.3169323-.9881942-.0524368-1.3575632-.369369-.3693691-.9608029-.3922136-1.3575632-.0524368l-.67.66c-1.2516155-1.5319965-2.0207158-3.4008057-2.21-5.37h.95c.5522847 0 1-.4477153 1-1s-.4477153-1-1-1z"/><path id="Shape" d="m30 18h4c.5522847 0 1-.4477153 1-1s-.4477153-1-1-1h-3v-5c0-.5522847-.4477153-1-1-1s-1 .4477153-1 1v6c0 .5522847.4477153 1 1 1z"/></g></g></g></svg>