<svg id="Layer_1" enable-background="new 0 0 512 512" height="512" viewBox="0 0 512 512" width="512" xmlns="http://www.w3.org/2000/svg"><path d="m245.002 10.998c-135.311 0-245.002 109.691-245.002 245.002 0 27.354 4.487 53.659 12.758 78.225l331.018 146.033c86.113-37.984 146.228-124.094 146.228-224.258 0-135.311-109.691-245.002-245.002-245.002z" fill="#327fcc"/><path d="m340.082 289.186-124.171-103.986c-.926-.776-1.812-1.574-2.632-2.321-25.637-23.342-33.464-58.883-22.376-89.699h-62.506c-12.503 0-22.676-10.173-22.676-22.677 0-1.357.127-2.685.356-3.978h-59.167c-19.28 0-34.91 15.63-34.91 34.91v230.455c6.974 21.424 16.82 41.551 29.082 59.928l116.367 93.067c27.188 10.408 56.703 16.116 87.553 16.116 35.383 0 69.007-7.513 99.384-21.011.02-.481.037-.962.037-1.448v-187.776c-1.542 0-3.083-.527-4.341-1.58z" fill="#384051"/><path d="m91.67 66.526h-44.76c-19.28 0-34.91 15.63-34.91 34.91v230.455c6.974 21.424 16.82 41.551 29.082 59.928l50.588 40.459v-338.072c-18.05-13.912 0-27.68 0-27.68z" fill="#2d3243"/><path d="m184.021 21.172h-11.619c-15.224 0-27.68 12.456-27.68 27.68h66.978c0-15.224-12.456-27.68-27.679-27.68z" fill="#fff442"/><path d="m178.453 23.203c1.556-.791 3.181-1.462 4.852-2.031h-10.904c-15.224 0-27.68 12.456-27.68 27.68h32.193c-8.518-5.802-9.43-20.075 1.539-25.649z" fill="#ffe400"/><path d="m316.742 478.043v-208.402l-100.831-84.441c-.926-.776-1.812-1.574-2.632-2.321-25.353-23.084-33.283-58.097-22.731-88.673h-143.138c-4.269 0-7.73 3.461-7.73 7.73v287.762c28.487 43.659 70.513 77.672 120.129 96.076h149.204c4.269-.001 7.729-3.462 7.729-7.731z" fill="#f7f3f1"/><path d="m83.94 101.935c0-4.269 3.461-7.73 7.73-7.73h-44.26c-4.269 0-7.729 3.461-7.729 7.73v287.762c12.364 18.949 27.281 36.077 44.26 50.905v-338.667z" fill="#cde2ff"/><path d="m205.521 68.778c7.408-8.846 16.278-15.758 25.963-20.694-1.13-.167-2.284-.257-3.459-.257h-99.629c-13.036 0-23.702 10.666-23.702 23.702 0 13.036 10.666 23.702 23.702 23.702h62.151c3.243-9.394 8.207-18.373 14.974-26.453z" fill="#fdca00"/><path d="m228.025 47.827h-73.103c13.036 0 23.702 10.666 23.702 23.702 0 13.036-10.666 23.702-23.702 23.702h35.626c3.242-9.393 8.207-18.373 14.973-26.453 7.408-8.846 16.278-15.758 25.963-20.694-1.13-.167-2.284-.257-3.459-.257z" fill="#feac00"/><path d="m152.915 136.751h-7.832c-11.023 0-19.991-8.968-19.991-19.991v-23.579c0-4.247 3.442-7.689 7.689-7.689s7.689 3.442 7.689 7.689v23.579c0 2.501 2.112 4.613 4.613 4.613h7.832c.64 0 1.265-.347 1.674-.93 3.748-5.349 9.864-8.543 16.361-8.543h14.524c3.104 0 6.206.739 8.971 2.138 3.789 1.916 5.308 6.541 3.391 10.331-1.916 3.79-6.544 5.308-10.331 3.391-.634-.32-1.317-.482-2.031-.482h-14.524c-1.486 0-2.894.744-3.767 1.99-3.286 4.686-8.619 7.483-14.268 7.483z" fill="#ffe400"/><path d="m164.845 131.964c.858-.811 1.645-1.708 2.337-2.696.873-1.246 2.282-1.99 3.767-1.99h14.524c.714 0 1.398.162 2.031.482 3.787 1.917 8.415.399 10.331-3.391 1.917-3.789.398-8.415-3.391-10.331-2.765-1.4-5.868-2.138-8.971-2.138h-14.524c-6.496 0-12.613 3.194-16.361 8.543 2.028 2.028 10.257.785 10.257 11.521z" fill="#fdca00"/><path d="m116.368 166.752h-23.579c-6.766 0-12.302 5.536-12.302 12.302v23.579c0 6.766 5.536 12.302 12.302 12.302h23.579c6.766 0 12.302-5.536 12.302-12.302v-23.579c0-6.767-5.536-12.302-12.302-12.302z" fill="#fff"/><path d="m99.911 203.967-13.718-13.717c-3.003-3.002-3.003-7.871-.001-10.873 3.004-3.004 7.872-3.003 10.873-.001l8.282 8.281 21.996-21.997c3.003-3.001 7.871-3.001 10.874 0 3.003 3.003 3.003 7.871 0 10.874l-27.433 27.434c-3.003 3-7.871 3.001-10.873-.001z" fill="#61ccf8"/><g fill="#fff"><path d="m177.128 184.303h-7.792c-4.247 0-7.689-3.442-7.689-7.689s3.442-7.689 7.689-7.689h7.792c4.247 0 7.689 3.442 7.689 7.689s-3.442 7.689-7.689 7.689z"/><path d="m204.294 212.762h-34.958c-4.247 0-7.689-3.442-7.689-7.689s3.442-7.689 7.689-7.689h34.958c4.247 0 7.689 3.442 7.689 7.689s-3.442 7.689-7.689 7.689z"/><path d="m116.368 242.859h-23.579c-6.766 0-12.302 5.536-12.302 12.302v23.579c0 6.766 5.536 12.302 12.302 12.302h23.579c6.766 0 12.302-5.536 12.302-12.302v-23.579c0-6.767-5.536-12.302-12.302-12.302z"/></g><path d="m99.911 280.073-13.718-13.717c-3.003-3.003-3.003-7.871-.001-10.874 3.004-3.004 7.872-3.003 10.873-.001l8.282 8.281 21.996-21.997c3.003-3.002 7.871-3.002 10.874 0 3.003 3.003 3.003 7.871 0 10.874l-27.433 27.434c-3.003 3.002-7.871 3.003-10.873 0z" fill="#61ccf8"/><path d="m261.26 260.41h-91.924c-4.247 0-7.689-3.442-7.689-7.689s3.442-7.689 7.689-7.689h91.924c4.247 0 7.689 3.442 7.689 7.689-.001 4.247-3.443 7.689-7.689 7.689z" fill="#fff"/><path d="m239.902 288.868h-70.566c-4.247 0-7.689-3.442-7.689-7.689s3.442-7.689 7.689-7.689h70.566c4.247 0 7.689 3.442 7.689 7.689s-3.442 7.689-7.689 7.689z" fill="#fff"/><path d="m116.368 318.966h-23.579c-6.766 0-12.302 5.536-12.302 12.302v23.579c0 6.766 5.536 12.302 12.302 12.302h23.579c6.766 0 12.302-5.536 12.302-12.302v-23.579c0-6.766-5.536-12.302-12.302-12.302z" fill="#cde2ff"/><path d="m270.486 336.517h-101.15c-4.247 0-7.689-3.442-7.689-7.689s3.442-7.689 7.689-7.689h101.15c4.247 0 7.689 3.442 7.689 7.689s-3.442 7.689-7.689 7.689z" fill="#fff"/><path d="m239.902 364.976h-70.566c-4.247 0-7.689-3.442-7.689-7.689s3.442-7.689 7.689-7.689h70.566c4.247 0 7.689 3.442 7.689 7.689s-3.442 7.689-7.689 7.689z" fill="#fff"/><path d="m116.368 395.073h-23.579c-6.766 0-12.302 5.536-12.302 12.302v23.579c0 6.766 5.536 12.302 12.302 12.302h23.579c6.766 0 12.302-5.536 12.302-12.302v-23.579c0-6.766-5.536-12.302-12.302-12.302z" fill="#cde2ff"/><path d="m104.578 354.847v-23.579c0-6.68 5.398-12.15 12.046-12.289-.086-.002-.17-.013-.256-.013h-23.579c-6.766 0-12.302 5.536-12.302 12.302v23.579c0 6.766 5.536 12.302 12.302 12.302h23.579c.086 0 .17-.011.256-.013-6.648-.139-12.046-5.609-12.046-12.289z" fill="#aad1f7"/><path d="m104.578 430.954v-23.579c0-6.68 5.398-12.15 12.046-12.289-.086-.002-.17-.013-.256-.013h-23.579c-6.766 0-12.302 5.536-12.302 12.302v23.579c0 6.766 5.536 12.302 12.302 12.302h23.579c.086 0 .17-.011.256-.013-6.648-.139-12.046-5.609-12.046-12.289z" fill="#aad1f7"/><path d="m270.486 412.624h-101.15c-4.247 0-7.689-3.442-7.689-7.689s3.442-7.689 7.689-7.689h101.15c4.247 0 7.689 3.442 7.689 7.689s-3.442 7.689-7.689 7.689z" fill="#fff"/><path d="m239.902 441.083h-70.566c-4.247 0-7.689-3.442-7.689-7.689s3.442-7.689 7.689-7.689h70.566c4.247 0 7.689 3.442 7.689 7.689s-3.442 7.689-7.689 7.689z" fill="#fff"/><path d="m484.433 66.127c-30.215-36.08-83.957-41.888-120.037-11.673l-9.476 7.935c-6.402 5.361-15.727 5.361-22.129 0l-9.476-7.935c-36.08-30.215-89.822-24.407-120.037 11.672v.001c-29.443 35.158-25.667 87.078 7.93 117.666.881.802 1.768 1.599 2.69 2.371l124.611 104.355c3.094 2.591 7.6 2.591 10.693 0l124.611-104.355c.922-.772 1.809-1.569 2.69-2.371 33.596-30.588 37.373-82.508 7.93-117.666z" fill="#e5646e"/><path d="m273.711 157.783c-.772-.922-1.505-1.862-2.232-2.806-27.703-36.013-22.302-87.789 12.857-117.231.489-.41.994-.788 1.49-1.185-29.701-5.789-61.715 4.69-82.547 29.566-29.443 35.158-25.666 87.078 7.93 117.667.881.802 1.768 1.599 2.69 2.371l124.611 104.355c3.094 2.591 7.6 2.591 10.693 0l20.959-17.552z" fill="#e7387f"/><path d="m346.104 224.148c-3.28 0-6.216-2.087-7.278-5.217l-19.151-56.401h-17.195l-15.298 38.8c-1.202 3.047-4.186 5.006-7.477 4.862-3.274-.138-6.1-2.335-7.041-5.473l-18.384-61.3-6.58 18.056c-1.071 2.939-3.817 4.937-6.944 5.051l-57.357 2.091c-4.264.143-7.809-3.162-7.964-7.404-.154-4.244 3.16-7.809 7.404-7.964l52.185-1.903 12.741-34.962c1.135-3.113 4.163-5.128 7.448-5.053 3.312.096 6.19 2.304 7.141 5.477l18.664 62.233 9.075-23.019c1.158-2.937 3.996-4.869 7.153-4.869h27.937c3.294 0 6.221 2.098 7.28 5.217l12.44 36.637 24.842-101.569c.827-3.383 3.825-5.787 7.307-5.86.054-.001.108-.002.163-.002 3.415 0 6.429 2.257 7.384 5.55l17.384 60.026h13.093l11.009-24.997c1.214-2.757 3.926-4.55 6.937-4.589 2.991-.065 5.768 1.683 7.054 4.407l11.879 25.179h52.355c4.247 0 7.689 3.442 7.689 7.689s-3.442 7.689-7.689 7.689h-57.229c-2.975 0-5.685-1.717-6.954-4.408l-6.764-14.338-6.234 14.155c-1.228 2.79-3.99 4.59-7.037 4.59h-23.887c-3.423 0-6.433-2.263-7.385-5.55l-10.98-37.913-24.267 99.219c-.812 3.32-3.718 5.705-7.132 5.855-.112.006-.225.008-.337.008z" fill="#f7f3f1"/><path d="m426.636 267.016c-36.868 51.061-56.475 48.883-56.475 120.776 0 33.46 17.461 47.337 36.129 52.618 49.4-43.234 81.27-105.993 83.573-176.239-17.037-15.061-41.827-26.793-63.227 2.845z" fill="#3e93d7"/></svg>