<svg height="512" viewBox="0 0 58 58" width="512" xmlns="http://www.w3.org/2000/svg"><g id="Page-1" fill="none" fill-rule="evenodd"><g id="009---Call-For-First-Aid" fill-rule="nonzero"><path id="Shape" d="m7 0h-4c-1.65685425 0-3 1.34314575-3 3v49c-.00148388.21202.02201133.4234769.07.63.29116512 1.3848022 1.51492672 2.3746708 2.93 2.37h28c1.6568542 0 3-1.3431458 3-3v-49c.0008934-.6978464-.2433152-1.37384413-.69-1.91-.2239611-.27912928-.498815-.51326407-.81-.69-.4567092-.26150352-.9737235-.39937399-1.5-.4z" fill="#2980ba"/><path id="Shape" d="m32.5.4c-6.39 1.96-31.07 11.97-32.43 50.23-.04798867-.2065231-.07148388-.41798-.07-.63v-47c0-1.65685425 1.34314575-3 3-3h4l2.86 3.05c.5663757.60708315 1.3597411.95123705 2.19.95h9.9c.8302589.00123705 1.6236243-.34291685 2.19-.95l2.86-3.05h4c.5262765.00062601 1.0432908.13849648 1.5.4z" fill="#3b97d3"/><path id="Shape" d="m27 0-2.86 3.05c-.5663757.60708315-1.3597411.95123705-2.19.95h-9.9c-.8302589.00123705-1.6236243-.34291685-2.19-.95l-2.86-3.05z" fill="#3f5c6c"/><g fill="#f3d55b"><path id="Shape" d="m18 24h-10c-.55228475 0-1-.4477153-1-1s.44771525-1 1-1h10c.5522847 0 1 .4477153 1 1s-.4477153 1-1 1z"/><path id="Shape" d="m18 19h-7c-.5522847 0-1-.4477153-1-1s.4477153-1 1-1h7c.5522847 0 1 .4477153 1 1s-.4477153 1-1 1z"/><path id="Shape" d="m18 42h-7c-.5522847 0-1-.4477153-1-1s.4477153-1 1-1h7c.5522847 0 1 .4477153 1 1s-.4477153 1-1 1z"/><path id="Shape" d="m18 30h-12c-.55228475 0-1-.4477153-1-1s.44771525-1 1-1h12c.5522847 0 1 .4477153 1 1s-.4477153 1-1 1z"/><path id="Shape" d="m18 36h-9c-.55228475 0-1-.4477153-1-1s.44771525-1 1-1h9c.5522847 0 1 .4477153 1 1s-.4477153 1-1 1z"/></g><path id="Shape" d="m58 19v23c-.0032948 1.1032019-.8967981 1.9967052-2 2h-36c-1.1032019-.0032948-1.9967052-.8967981-2-2v-23z" fill="#c03a2b"/><path id="Shape" d="m44 31h-4v-4c0-.5522847-.4477153-1-1-1h-2c-.5522847 0-1 .4477153-1 1v4h-4c-.5522847 0-1 .4477153-1 1v2c0 .5522847.4477153 1 1 1h4v4c0 .5522847.4477153 1 1 1h2c.5522847 0 1-.4477153 1-1v-4h4c.5522847 0 1-.4477153 1-1v-2c0-.5522847-.4477153-1-1-1z" fill="#fff"/><path id="Shape" d="m58 17v4h-40v-4c.0032948-1.1032019.8967981-1.9967052 2-2h36c1.1032019.0032948 1.9967052.8967981 2 2z" fill="#e64c3c"/><rect id="Rectangle-path" fill="#f3d55b" height="4" rx="1" width="7" x="23" y="19"/><rect id="Rectangle-path" fill="#f3d55b" height="4" rx="1" width="7" x="46" y="19"/><path id="Shape" d="m47 15h-2v-3c0-.5522847-.4477153-1-1-1h-12c-.5522847 0-1 .4477153-1 1v3h-2v-3c0-1.6568542 1.3431458-3 3-3h12c1.6568542 0 3 1.3431458 3 3z" fill="#95a5a5"/><path id="Shape" d="m34 50v5c0 1.6568542-1.3431458 3-3 3h-28c-1.65685425 0-3-1.3431458-3-3v-5c0 1.6568542 1.34314575 3 3 3h28c1.6568542 0 3-1.3431458 3-3z" fill="#3f5c6c"/></g></g></svg>