<?xml version="1.0" encoding="utf-8"?>
<!-- Generator: Adobe Illustrator 17.0.0, SVG Export Plug-In . SVG Version: 6.00 Build 0)  -->
<!DOCTYPE svg PUBLIC "-//W3C//DTD SVG 1.1//EN" "http://www.w3.org/Graphics/SVG/1.1/DTD/svg11.dtd">
<svg version="1.1" id="Layer_1" xmlns="http://www.w3.org/2000/svg" xmlns:xlink="http://www.w3.org/1999/xlink" x="0px" y="0px"
	 width="1024px" height="768px" viewBox="0 0 1024 768" enable-background="new 0 0 1024 768" xml:space="preserve">
<rect x="254" y="147" display="none" fill="#BF1326" width="516" height="458"/>
<g id="logo_x5F_white">
	<path fill="#FFFFFF" d="M725.729,286.945c-17.321-27.182-46.002-39.911-78.229-38.347c8.25,0,16.75-0.724,28.404,14.699
		c2.85,4.374,5.089,8.537,6.844,12.536c3.585,8.167,5.119,18.334,5.119,23.584c0,17.25-5.89,29.046-15.519,40.455
		c0.063-0.076,0.172-0.252,0.306-0.488c-0.675,1.124-1.471,2.184-2.443,3.156c-25.17,25.152-154.866,155.315-157.516,157.9
		c-1.706,1.664-2.657,1.935-4.491,0.058c-7.662-7.844-139.388-140.057-158.402-158.248c-19.17-18.34-29.054-40.901-33.088-66.564
		c-0.587-3.735-1.168-7.471-1.798-11.509c-3.934,3.837-7.659,7.113-10.971,10.764c-11.836,13.049-18.987,28.269-20.412,45.944
		c-0.711,8.815,0.089,17.393,2.05,26.189c2.624,11.766,6.716,22.433,14.862,31.272c23.689,25.705,182.708,184.299,206.863,208.697
		c2.694,2.721,3.963,1.898,6.138-0.325c9.711-9.924,105.189-104.98,111.311-112.031c0.494-0.334,91.89-91.04,97.15-98.639
		l1.435-1.949c4.9-6.762,10.131-17.565,12.427-27.577C740.659,325.2,737.244,305.016,725.729,286.945z M681.252,267.752
		l-0.004-0.005C681.248,267.747,681.252,267.752,681.252,267.752L681.252,267.752z"/>
	<linearGradient id="SVGID_1_" gradientUnits="userSpaceOnUse" x1="397.5885" y1="243.5088" x2="651.7549" y2="243.5088">
		<stop  offset="0" style="stop-color:#C8C8C8"/>
		<stop  offset="0.2" style="stop-color:#FFFFFF"/>
	</linearGradient>
	<path fill="url(#SVGID_1_)" d="M607.198,180.002c-20.25-2.79-31.5-1.69-51.643,5.741c-16.024,5.509-39.142,30.504-42.794,34.884
		c-1.563,1.458-2.728,1.478-4.912-0.706c-5.333-5.333-10.33-10.999-16.037-15.954C480.198,191.085,460.3,179.953,443,178.875
		c-15.375-0.958-26.281,1.359-30.891,2.891c0,0-12.301,23.734-13.891,35.686c-1.832,13.773,0.19,27.342,7.894,39.399
		c2.742,4.292,5.264,8.936,10.013,11.56c-1.014-5.27-1.862-10.603,0.155-15.771c5.17-13.252,22.201-16.035,31.739-5.383
		c3.976,4.441,45.132,45.302,59.455,59.737c1.262,1.272,2.746,2.208,4.426,0.486c0.433-0.22,42.91-43.357,64.964-63.803
		c0.239-0.241,19.333-17.925,30.431-21.575c14.124-5.562,28.639-9.545,44.459-10.501
		C640.948,198.752,627.531,184.419,607.198,180.002z"/>
	<linearGradient id="SVGID_2_" gradientUnits="userSpaceOnUse" x1="353.8405" y1="314.1744" x2="688.8666" y2="314.1744">
		<stop  offset="0.8" style="stop-color:#FFFFFF"/>
		<stop  offset="1" style="stop-color:#C8C8C8"/>
	</linearGradient>
	<path fill="url(#SVGID_2_)" d="M688.867,299.417c-0.003-7.455-1.441-15.163-5.119-23.584c-1.747-4.001-3.995-8.162-6.844-12.536
		c-11.654-15.422-20.154-14.699-28.404-14.699c-4.851,0-14.25,2.401-14.25,2.401s-13,4.5-25.904,16.862
		c-0.232-0.003-93.859,90.226-95.003,92.721c-2.045,0.618-3.441,0.093-5.083-1.6c-5.076-5.235-91.332-91.324-91.332-91.324
		c-7.454-7.779-11.358-13.172-13.448-17.817c-5.09-11.312-5.687-20.841-4.459-33.142c0.948-9.506,6.692-19.829,11.502-27.181
		c1.086-1.661,6.102-7.862,9.39-9.601c-7.179,1.02-15.359,3.941-21.628,7.275c-26.229,13.948-40.654,36.206-43.98,65.265
		c-2.138,18.676,3.201,35.932,13.979,51.535c6.815,9.867,64.456,64.95,64.591,64.814c-0.135,0.136,67.218,68.819,76.443,78.571
		c1.921,2.03,3.189,0.747,4.598-0.669c9.25-9.292,118.368-117.937,126.803-127.365c2.5-2.794,5.29-5.55,8.848-7.123
		c7.208-3.187,14.149-2.531,20.362,2.307c6.069,4.726,7.727,11.216,6.374,18.612c-0.118,0.695-0.566,1.864-1.08,3.038
		c-0.553,1.261-1.18,2.518-1.569,3.205c-0.134,0.236-0.243,0.413-0.306,0.488C682.977,328.463,688.872,316.667,688.867,299.417z"/>
</g>
<g id="logo_x5F_original" display="none">
	<path display="inline" fill="#BF1326" d="M725.729,286.945c-17.321-27.182-46.002-39.911-78.229-38.347
		c8.25,0,16.75-0.724,28.404,14.699c2.85,4.374,5.089,8.537,6.844,12.536c3.585,8.167,5.119,18.334,5.119,23.584
		c0,17.25-5.89,29.046-15.519,40.455c0.063-0.076,0.172-0.252,0.306-0.488c-0.675,1.124-1.471,2.184-2.443,3.156
		c-25.17,25.152-154.866,155.315-157.516,157.9c-1.706,1.664-2.657,1.935-4.491,0.058c-7.662-7.844-139.388-140.057-158.402-158.248
		c-19.17-18.34-29.054-40.901-33.088-66.564c-0.587-3.735-1.168-7.471-1.798-11.509c-3.934,3.837-7.659,7.113-10.971,10.764
		c-11.836,13.049-18.987,28.269-20.412,45.944c-0.711,8.815,0.089,17.393,2.05,26.189c2.624,11.766,6.716,22.433,14.862,31.272
		c23.689,25.705,182.708,184.299,206.863,208.697c2.694,2.721,3.963,1.898,6.138-0.325c9.711-9.924,105.189-104.98,111.311-112.031
		c0.494-0.334,91.89-91.04,97.15-98.639l1.435-1.949c4.9-6.762,10.131-17.565,12.427-27.577
		C740.659,325.2,737.244,305.016,725.729,286.945z M681.252,267.752l-0.004-0.005C681.248,267.747,681.252,267.752,681.252,267.752
		L681.252,267.752z"/>
	<linearGradient id="SVGID_3_" gradientUnits="userSpaceOnUse" x1="397.5885" y1="243.5088" x2="651.7549" y2="243.5088">
		<stop  offset="0" style="stop-color:#821824"/>
		<stop  offset="0.2" style="stop-color:#BF1326"/>
	</linearGradient>
	<path display="inline" fill="url(#SVGID_3_)" d="M607.198,180.002c-20.25-2.79-31.5-1.69-51.643,5.741
		c-16.024,5.509-39.142,30.504-42.794,34.884c-1.563,1.458-2.728,1.478-4.912-0.706c-5.333-5.333-10.33-10.999-16.037-15.954
		C480.198,191.085,460.3,179.953,443,178.875c-15.375-0.958-26.281,1.359-30.891,2.891c0,0-12.301,23.734-13.891,35.686
		c-1.832,13.773,0.19,27.342,7.894,39.399c2.742,4.292,5.264,8.936,10.013,11.56c-1.014-5.27-1.862-10.603,0.155-15.771
		c5.17-13.252,22.201-16.035,31.739-5.383c3.976,4.441,45.132,45.302,59.455,59.737c1.262,1.272,2.746,2.208,4.426,0.486
		c0.433-0.22,42.91-43.357,64.964-63.803c0.239-0.241,19.333-17.925,30.431-21.575c14.124-5.562,28.639-9.545,44.459-10.501
		C640.948,198.752,627.531,184.419,607.198,180.002z"/>
	<linearGradient id="SVGID_4_" gradientUnits="userSpaceOnUse" x1="353.8405" y1="314.1744" x2="688.8666" y2="314.1744">
		<stop  offset="0.8" style="stop-color:#BF1326"/>
		<stop  offset="1" style="stop-color:#821824"/>
	</linearGradient>
	<path display="inline" fill="url(#SVGID_4_)" d="M688.867,299.417c-0.003-7.455-1.441-15.163-5.119-23.584
		c-1.747-4.001-3.995-8.162-6.844-12.536c-11.654-15.422-20.154-14.699-28.404-14.699c-4.851,0-14.25,2.401-14.25,2.401
		s-13,4.5-25.904,16.862c-0.232-0.003-93.859,90.226-95.003,92.721c-2.045,0.618-3.441,0.093-5.083-1.6
		c-5.076-5.235-91.332-91.324-91.332-91.324c-7.454-7.779-11.358-13.172-13.448-17.817c-5.09-11.312-5.687-20.841-4.459-33.142
		c0.948-9.506,6.692-19.829,11.502-27.181c1.086-1.661,6.102-7.862,9.39-9.601c-7.179,1.02-15.359,3.941-21.628,7.275
		c-26.229,13.948-40.654,36.206-43.98,65.265c-2.138,18.676,3.201,35.932,13.979,51.535c6.815,9.867,64.456,64.95,64.591,64.814
		c-0.135,0.136,67.218,68.819,76.443,78.571c1.921,2.03,3.189,0.747,4.598-0.669c9.25-9.292,118.368-117.937,126.803-127.365
		c2.5-2.794,5.29-5.55,8.848-7.123c7.208-3.187,14.149-2.531,20.362,2.307c6.069,4.726,7.727,11.216,6.374,18.612
		c-0.118,0.695-0.566,1.864-1.08,3.038c-0.553,1.261-1.18,2.518-1.569,3.205c-0.134,0.236-0.243,0.413-0.306,0.488
		C682.977,328.463,688.872,316.667,688.867,299.417z"/>
</g>
</svg>
