<svg id="Layer_1" enable-background="new 0 0 46 58" height="512" viewBox="0 0 46 58" width="512" xmlns="http://www.w3.org/2000/svg"><path d="m42.542 2h-2.542-10-23v56h35.542c1.91 0 3.458-1.548 3.458-3.459v-49.083c0-1.91-1.548-3.458-3.458-3.458z" fill="#dd352e"/><path d="m8 58h-4.542c-1.91 0-3.458-1.548-3.458-3.458v-49.084c0-1.91 1.548-3.458 3.458-3.458h4.542z" fill="#b02721"/><path d="m40 14-5-4-5 4v-12.999c0-.553.448-1.001 1.001-1.001h7.997c.554 0 1.002.448 1.002 1.001z" fill="#366db6"/><path d="m36.996 53h-19.992c-1.659 0-3.004-1.345-3.004-3.004v-5.992c0-1.659 1.345-3.004 3.004-3.004h19.992c1.659 0 3.004 1.345 3.004 3.004v5.992c0 1.659-1.345 3.004-3.004 3.004z" fill="#f7e6a1"/><g fill="#c9b875"><path d="m28 50h-10c-.552 0-1-.448-1-1s.448-1 1-1h10c.552 0 1 .448 1 1s-.448 1-1 1z"/><path d="m36 50h-4c-.552 0-1-.448-1-1s.448-1 1-1h4c.552 0 1 .448 1 1s-.448 1-1 1z"/><path d="m36 46h-9c-.552 0-1-.448-1-1s.448-1 1-1h9c.552 0 1 .448 1 1s-.448 1-1 1z"/><path d="m23 46h-5c-.552 0-1-.448-1-1s.448-1 1-1h5c.552 0 1 .448 1 1s-.448 1-1 1z"/></g><path d="m4 55c-.552 0-1-.448-1-1v-48c0-.552.448-1 1-1s1 .448 1 1v48c0 .552-.448 1-1 1z" fill="#871212"/><path d="m36 24h-6v-6h-6v6h-6v6h6v6h6v-6h6z" fill="#fff"/><path d="m35 5c-.552 0-1 .448-1 1v4.8l1-.8 1 .8v-4.8c0-.552-.448-1-1-1z" fill="#1f436d"/></svg>