<?xml version="1.0" encoding="iso-8859-1"?>
<!-- Generator: Adobe Illustrator 19.0.0, SVG Export Plug-In . SVG Version: 6.00 Build 0)  -->
<svg version="1.1" id="Capa_1" xmlns="http://www.w3.org/2000/svg" xmlns:xlink="http://www.w3.org/1999/xlink" x="0px" y="0px"
	 viewBox="0 0 512 512" style="enable-background:new 0 0 512 512;" xml:space="preserve">
<g>
	<g transform="translate(1 1)">
		<g>
			<path style="fill:#95A5A5;" d="M383,340.333v153.6c-0.014,4.707-3.826,8.52-8.533,8.533h-25.6V331.8h25.6
				C379.174,331.814,382.986,335.626,383,340.333z"/>
			<path style="fill:#95A5A5;" d="M161.133,331.8v170.667h-25.6c-4.707-0.014-8.52-3.826-8.533-8.533v-153.6
				c0.014-4.707,3.826-8.52,8.533-8.533H161.133z"/>
			<path style="fill:#95A5A5;" d="M161.133,331.8v170.667h187.733V331.8H161.133z M306.2,425.667
				c-0.014,4.707-3.826,8.52-8.533,8.533h-25.6v25.6c-0.014,4.707-3.826,8.52-8.533,8.533h-17.067
				c-4.707-0.014-8.52-3.826-8.533-8.533v-25.6h-25.6c-4.707-0.014-8.52-3.826-8.533-8.533V408.6
				c0.014-4.707,3.826-8.52,8.533-8.533h25.6v-25.6c0.014-4.707,3.826-8.52,8.533-8.533h17.067c4.707,0.014,8.52,3.826,8.533,8.533
				v25.6h25.6c4.707,0.014,8.52,3.826,8.533,8.533V425.667z"/>
			<path style="fill:#95A5A5;" d="M306.2,408.6v17.067c-0.014,4.707-3.826,8.52-8.533,8.533h-25.6v25.6
				c-0.014,4.707-3.826,8.52-8.533,8.533h-17.067c-4.707-0.014-8.52-3.826-8.533-8.533v-25.6h-25.6
				c-4.707-0.014-8.52-3.826-8.533-8.533V408.6c0.014-4.707,3.826-8.52,8.533-8.533h25.6v-25.6c0.014-4.707,3.826-8.52,8.533-8.533
				h17.067c4.707,0.014,8.52,3.826,8.533,8.533v25.6h25.6C302.374,400.08,306.186,403.893,306.2,408.6z"/>
		</g>
		<g>
			<path style="fill:#FFEB3A;" d="M383,340.333v153.6c-0.014,4.707-3.826,8.52-8.533,8.533h-25.6V331.8h25.6
				C379.174,331.814,382.986,335.626,383,340.333z"/>
			<path style="fill:#FFEB3A;" d="M161.133,331.8v170.667h-25.6c-4.707-0.014-8.52-3.826-8.533-8.533v-153.6
				c0.014-4.707,3.826-8.52,8.533-8.533H161.133z"/>
		</g>
		<rect x="161.133" y="331.8" style="fill:#C52828;" width="187.733" height="170.667"/>
		<rect x="161.133" y="331.8" style="fill:#F44335;" width="162.133" height="170.667"/>
		<path style="fill:#FFFFFF;" d="M306.2,408.6v17.067c-0.014,4.707-3.826,8.52-8.533,8.533h-25.6v25.6
			c-0.014,4.707-3.826,8.52-8.533,8.533h-17.067c-4.707-0.014-8.52-3.826-8.533-8.533v-25.6h-25.6
			c-4.707-0.014-8.52-3.826-8.533-8.533V408.6c0.014-4.707,3.826-8.52,8.533-8.533h25.6v-25.6c0.014-4.707,3.826-8.52,8.533-8.533
			h17.067c4.707,0.014,8.52,3.826,8.533,8.533v25.6h25.6C302.374,400.08,306.186,403.893,306.2,408.6z"/>
		<path style="fill:#F44335;" d="M459.8,212.333c0-23.381-28.672-42.411-64-42.411c-34.219,0-62.208,17.835-63.915,40.192
			c-0.07,0.737-0.098,1.478-0.085,2.219c0-32.939-34.389-59.733-76.8-59.733c-41.046,0-74.667,25.088-76.715,56.661
			c-0.085,1.024-0.085,2.048-0.085,3.072c0-23.381-28.672-42.411-64-42.411c-34.219,0-62.208,17.835-63.915,40.192
			C51.485,97.451,143.478,6.924,256.146,7.534S459.821,99.664,459.8,212.333z"/>
		<path style="fill:#C52828;" d="M459.8,212.333c0-14.763-11.435-27.819-28.757-35.328C414.73,83.784,336.652,13.891,242.2,7.96
			c4.267-0.256,8.533-0.427,12.8-0.427C368.096,7.562,459.771,99.238,459.8,212.333z"/>
	</g>
	<g>
		<path d="M43.823,217.377c0.203,0.456,0.446,0.894,0.727,1.307l85.927,106.746c-6.613,2.505-10.993,8.832-11.01,15.904v153.6
			c0.011,9.421,7.645,17.056,17.067,17.067h238.933c9.421-0.011,17.056-7.645,17.067-17.067v-153.6
			c-0.018-7.071-4.398-13.398-11.01-15.904l85.927-106.746c0.279-0.412,0.522-0.848,0.725-1.303c0.201-0.31,0.38-0.633,0.538-0.967
			c0.397-0.979,0.607-2.024,0.62-3.081C469.333,95.513,373.821,0,256,0S42.667,95.513,42.667,213.333
			c0.013,1.057,0.224,2.102,0.622,3.081C43.445,216.747,43.623,217.068,43.823,217.377z M341.333,341.333v153.6H170.667v-153.6
			H341.333z M324.267,324.267H187.733l0-110.933c0-0.792-0.009-1.587,0.067-2.517c1.775-27.3,31.725-48.683,68.2-48.683
			c37.642,0,68.267,22.967,68.267,51.2V324.267z M170.667,324.267h-19.212L59.917,210.558c2.367-17.258,26.758-31.104,55.283-31.104
			c30.067,0,55.467,15.517,55.467,33.879V324.267z M136.533,341.333H153.6v153.6h-17.067V341.333z M375.467,494.933H358.4v-153.6
			h17.067V494.933z M360.546,324.267h-19.212V213.333c-0.013-0.523,0.007-1.046,0.058-1.567
			c1.358-17.817,26.217-32.312,55.408-32.312c28.542,0,52.883,13.983,55.275,31.113L360.546,324.267z M256,17.067
			c94.573,0.132,175.644,67.597,192.954,160.573c-15.389-10.356-33.61-15.685-52.154-15.252
			c-23.235-0.918-45.783,7.984-62.125,24.526c-12.935-24.559-43.327-41.847-78.675-41.847c-35.308,0-65.698,17.179-78.635,41.761
			c-16.292-16.633-38.907-25.524-62.165-24.441c-18.598-0.344-36.843,5.1-52.212,15.579C80.162,84.839,161.302,17.199,256,17.067z"
			/>
		<path d="M213.333,443.733H230.4V460.8c0.011,9.421,7.645,17.056,17.067,17.067h17.067c9.421-0.011,17.056-7.645,17.067-17.067
			v-17.067h17.067c9.421-0.011,17.056-7.645,17.067-17.067V409.6c-0.011-9.421-7.645-17.056-17.067-17.067H281.6v-17.067
			c-0.011-9.421-7.645-17.056-17.067-17.067h-17.067c-9.421,0.011-17.056,7.645-17.067,17.067v17.067h-17.067
			c-9.421,0.011-17.056,7.645-17.067,17.067v17.067C196.277,436.088,203.912,443.723,213.333,443.733z M213.333,409.6h25.6
			c2.263,0.001,4.434-0.898,6.035-2.499c1.6-1.6,2.499-3.771,2.499-6.035v-25.6h17.067v25.6c-0.001,2.263,0.898,4.434,2.499,6.035
			c1.6,1.6,3.771,2.499,6.035,2.499l25.6,0.025v17.042h-25.6c-2.263-0.001-4.434,0.898-6.035,2.499
			c-1.6,1.6-2.499,3.771-2.499,6.035v25.6h-17.067v-25.6c0.001-2.263-0.898-4.434-2.499-6.035c-1.6-1.6-3.771-2.499-6.035-2.499
			h-25.6V409.6z"/>
	</g>
</g>
<g>
</g>
<g>
</g>
<g>
</g>
<g>
</g>
<g>
</g>
<g>
</g>
<g>
</g>
<g>
</g>
<g>
</g>
<g>
</g>
<g>
</g>
<g>
</g>
<g>
</g>
<g>
</g>
<g>
</g>
</svg>
