<?xml version="1.0" encoding="utf-8"?>
<!-- Generator: Adobe Illustrator 22.0.1, SVG Export Plug-In . SVG Version: 6.00 Build 0)  -->
<svg version="1.1" id="Layer_1" xmlns="http://www.w3.org/2000/svg" xmlns:xlink="http://www.w3.org/1999/xlink" x="0px" y="0px"
	 viewBox="0 0 60 60" style="enable-background:new 0 0 60 60;" xml:space="preserve">
<g id="Page-1">
	<g id="_x30_88---Time-Marker">
		<path id="Shape_1_" d="M38.4,15c-2.3-2.3-5.4-3.5-8.4-3.5c-3.1,0-6.1,1.2-8.5,3.5c-4.6,4.7-4.6,12.2,0,16.9
			c2.3,2.3,5.4,3.5,8.5,3.5c3,0,6.1-1.2,8.4-3.5C43,27.2,43,19.7,38.4,15z M37.8,29.8l-0.7-0.7c-0.2-0.3-0.6-0.4-1-0.3
			c-0.4,0.1-0.7,0.4-0.7,0.7c-0.1,0.4,0,0.8,0.3,1l0.7,0.7c-1.5,1.3-3.4,2.1-5.4,2.3v-1c0-0.5-0.5-1-1-1s-1,0.5-1,1v1
			c-2-0.2-3.8-1-5.3-2.2l0.7-0.7c0.3-0.4,0.3-1-0.1-1.4s-1-0.4-1.4,0l-0.7,0.7c-1.3-1.5-2-3.4-2.2-5.4h1c0.5,0,1-0.5,1-1s-0.5-1-1-1
			h-1c0.2-2,1-3.8,2.2-5.3l0.7,0.7c0.4,0.4,1,0.4,1.4,0c0.4-0.4,0.4-1,0-1.4l-0.7-0.7c1.5-1.2,3.4-2,5.3-2.2v1c0,0.5,0.5,1,1,1
			s1-0.5,1-1v-1c2,0.2,3.8,1,5.3,2.2l-0.7,0.7c-0.4,0.4-0.4,1,0,1.4c0.4,0.4,1,0.4,1.4,0l0.7-0.7c1.3,1.5,2.1,3.4,2.3,5.4h-1
			c-0.5,0-1,0.5-1,1s0.5,1,1,1h1C39.8,26.4,39,28.2,37.8,29.8z"/>
		<path id="Shape_2_" d="M30,24.4h4c0.6,0,1-0.4,1-1s-0.4-1-1-1h-3v-5c0-0.6-0.4-1-1-1s-1,0.4-1,1v6C29,24,29.4,24.4,30,24.4z"/>
		<path d="M29.6,53.2l0.2,0.2C29.9,53.3,29.8,53.3,29.6,53.2z M29.1,52.9c0.2,0.1,0.4,0.2,0.5,0.3l-1.7-1.1
			C28.2,52.3,28.5,52.5,29.1,52.9z M27.8,52c-0.1-0.1-0.2-0.2-0.5-0.4C27.5,51.7,27.6,51.8,27.8,52z"/>
		<path d="M30,6.6c-9.4,0-17,7.6-17,17c0,4.4,0.9,8.8,2.7,12.8l1,2c0.6,1.2,1.3,2.4,2,3.5c0.2,0.3,0.4,0.6,0.6,0.8l2.5,3.2
			c0.8,1,1.6,1.9,2.4,2.7l1.5,1.5c0.5,0.5,1,0.9,1.5,1.3c0.1,0,0.1,0.1,0.2,0.1c0.2,0.1,0.3,0.3,0.5,0.4c0,0,0.1,0.1,0.1,0.1
			c0,0,0,0,0,0l1.7,1.1l0.2,0.2c0,0,0.1,0.1,0.1,0.1c0,0,0.1,0,0.1-0.1c0,0,0.4-0.3,0.7-0.5c0.6-0.4,0.9-0.6,1.2-0.8
			c0.1-0.1,0.3-0.2,0.8-0.6c0.5-0.4,0.9-0.8,1.5-1.3l1.5-1.5c0.8-0.8,1.6-1.7,2.4-2.7l2.5-3.2c0.2-0.3,0.4-0.5,0.6-0.8
			c0.7-1.1,1.4-2.3,2-3.5l1-2c1.8-4,2.7-8.4,2.7-12.8C47,14.2,39.4,6.6,30,6.6z M33.4,48.3c-1.1,1-2.2,2-3.4,2.9
			c-1.2-0.9-2.3-1.9-3.4-2.9C19.6,41.7,15,33.1,15,23.6c0-2.1,0.5-4.3,1.3-6.2c2.5-5.5,7.9-8.8,13.7-8.8c5.8,0,11.2,3.4,13.7,8.8
			c0.9,2,1.3,4.1,1.3,6.2C45,33.1,40.4,41.7,33.4,48.3z"/>
	</g>
</g>
</svg>
