<?xml version="1.0" encoding="iso-8859-1"?>
<!-- Generator: Adobe Illustrator 19.0.0, SVG Export Plug-In . SVG Version: 6.00 Build 0)  -->
<svg version="1.1" id="Capa_1" xmlns="http://www.w3.org/2000/svg" xmlns:xlink="http://www.w3.org/1999/xlink" x="0px" y="0px"
	 viewBox="0 0 508 508" style="enable-background:new 0 0 508 508;" xml:space="preserve">
<g>
	<g>
		<rect x="204.8" y="49.2" width="16.4" height="16.4"/>
	</g>
</g>
<g>
	<g>
		<rect x="237.6" y="49.2" width="16.4" height="16.4"/>
	</g>
</g>
<g>
	<g>
		<rect x="172.1" y="49.2" width="16.4" height="16.4"/>
	</g>
</g>
<g>
	<g>
		<path d="M114.7,155.6v49.2h49.2v-49.2H114.7z M147.5,188.5h-16.4v-16.4h16.4V188.5z"/>
	</g>
</g>
<g>
	<g>
		<path d="M188.4,155.6v49.2h49.2v-49.2H188.4z M221.2,188.5h-16.4v-16.4h16.4V188.5z"/>
	</g>
</g>
<g>
	<g>
		<path d="M262.1,155.7v49.2h49.2v-49.2H262.1z M295,188.5h-16.4v-16.4H295V188.5z"/>
	</g>
</g>
<g>
	<g>
		<path d="M335.9,155.7v49.2h49.2v-49.2H335.9z M368.7,188.5h-16.4v-16.4h16.4V188.5z"/>
	</g>
</g>
<g>
	<g>
		<path d="M41,237.6v49.2h49.2v-49.2H41z M73.8,270.4H57.4V254h16.4V270.4z"/>
	</g>
</g>
<g>
	<g>
		<path d="M114.7,237.6v49.2h49.2v-49.2H114.7z M147.5,270.4h-16.4V254h16.4V270.4z"/>
	</g>
</g>
<g>
	<g>
		<path d="M188.4,237.6v49.2h49.2v-49.2H188.4z M221.2,270.4h-16.4V254h16.4V270.4z"/>
	</g>
</g>
<g>
	<g>
		<path d="M254,237.6v49.2h49.2v-49.2H254z M286.8,270.4h-16.4V254h16.4V270.4z"/>
	</g>
</g>
<g>
	<g>
		<path d="M41,319.5v49.2h49.2v-49.2H41z M73.8,352.3H57.4v-16.4h16.4V352.3z"/>
	</g>
</g>
<g>
	<g>
		<path d="M114.7,319.5v49.2h49.2v-49.2H114.7z M147.5,352.3h-16.4v-16.4h16.4V352.3z"/>
	</g>
</g>
<g>
	<g>
		<path d="M188.4,319.5v49.2h49.2v-49.2H188.4z M221.2,352.3h-16.4v-16.4h16.4V352.3z"/>
	</g>
</g>
<g>
	<g>
		<path d="M426.1,269.4V0H0v409.7h264.7c11.4,56,61.1,98.3,120.4,98.3c67.8,0,122.9-55.1,122.9-122.9
			C508,331.7,473.7,286.3,426.1,269.4z M16.4,16.4h393.3v65.5h-65.5V32.8h-57.4V82H139.3V32.8H81.9V82H16.4V16.4z M327.7,49.2v65.5
			h-24.6V49.2H327.7z M122.9,49.2v65.5H98.3V49.2H122.9z M262.7,393.2H16.4V98.3H82v32.8h57.4V98.3h147.5v32.8h57.4V98.3h65.5v166.3
			C289.3,247.8,258.8,354.8,262.7,393.2z M385.1,491.6c-58.7,0-106.5-47.8-106.5-106.5s47.8-106.5,106.5-106.5
			s106.5,47.8,106.5,106.5S443.8,491.6,385.1,491.6z"/>
	</g>
</g>
<g>
	<g>
		<path d="M417.9,352.4v-41h-65.5v41h-41v65.5h41v41h65.5v-41h41v-65.5H417.9z M442.4,401.5h-41v41h-32.8v-41h-41v-32.8h41v-41h32.8
			v41h41V401.5z"/>
	</g>
</g>
<g>
</g>
<g>
</g>
<g>
</g>
<g>
</g>
<g>
</g>
<g>
</g>
<g>
</g>
<g>
</g>
<g>
</g>
<g>
</g>
<g>
</g>
<g>
</g>
<g>
</g>
<g>
</g>
<g>
</g>
</svg>
